<?xml version="1.0" standalone="no"?><svg version="1.1" xmlns="http://www.w3.org/2000/svg" width="756.270113031915" height="361.8495366522607"><svg x="465.19169714095744" y="27.5" width="39.39469747340422" height="254.17145944148933"><path d="M16.39469747340422,22L26.39469747340422,22Q36.39469747340422,22,36.39469747340422,32L36.39469747340422,218.17145944148933Q36.39469747340422,228.17145944148933,26.39469747340422,228.17145944148933L4,228.17145944148933L26.39469747340422,228.17145944148933Q36.39469747340422,228.17145944148933,36.39469747340422,218.17145944148933L36.39469747340422,32Q36.39469747340422,22,26.39469747340422,22L16.39469747340422,22L16.39469747340422,22ZM26.39469747340422,18L26.39469747340422,26M4,224.17145944148933L14,228.17145944148933L4,232.17145944148933" fill="none" stroke="#D3D3D3" stroke-width="1"></path><text x="19.39469747340422" y="19" style="font-family: &quot;Open Sans&quot;, sans-serif; font-size: 14px; font-weight: normal; fill: transparent;">1</text><text x="7" y="225.17145944148933" style="font-family: &quot;Open Sans&quot;, sans-serif; font-size: 14px; font-weight: normal; fill: transparent;">*</text></svg><svg x="465.19169714095744" y="69.77704247007989" width="90.58720495345756" height="178.89441697140944"><path d="M4,152.89441697140944L30.79360247672878,152.89441697140944Q40.79360247672878,152.89441697140944,40.79360247672878,142.89441697140944L40.79360247672878,32Q40.79360247672878,22,50.79360247672878,22L77.58720495345756,22L50.79360247672878,22Q40.79360247672878,22,40.79360247672878,32L40.79360247672878,142.89441697140944Q40.79360247672878,152.89441697140944,30.79360247672878,152.89441697140944L4,152.89441697140944L4,152.89441697140944M14,148.89441697140944L14,156.89441697140944M77.58720495345756,18L67.58720495345756,22L77.58720495345756,26" fill="none" stroke="#D3D3D3" stroke-width="1"></path><text x="7" y="149.89441697140944" style="font-family: &quot;Open Sans&quot;, sans-serif; font-size: 14px; font-weight: normal; fill: transparent;">1</text><text x="66.87626745345756" y="19" style="font-family: &quot;Open Sans&quot;, sans-serif; font-size: 14px; font-weight: normal; fill: transparent;">*</text></svg><svg x="723.9609063331114" y="201.7770424700799" width="32.309206698803564" height="136.57249418218083"><path d="M4,110.57249418218083L19.309206698803564,110.57249418218083Q29.309206698803564,110.57249418218083,29.309206698803564,100.57249418218083L29.309206698803564,32Q29.309206698803564,22,19.309206698803564,22L9.309206698803564,22L19.309206698803564,22Q29.309206698803564,22,29.309206698803564,32L29.309206698803564,100.57249418218083Q29.309206698803564,110.57249418218083,19.309206698803564,110.57249418218083L4,110.57249418218083L4,110.57249418218083ZM14,106.57249418218083L14,114.57249418218083M9.309206698803564,18L19.309206698803564,22L9.309206698803564,26" fill="none" stroke="#D3D3D3" stroke-width="1"></path><text x="7" y="107.57249418218083" style="font-family: &quot;Open Sans&quot;, sans-serif; font-size: 14px; font-weight: normal; fill: transparent;">1</text><text x="12.309206698803564" y="19" style="font-family: &quot;Open Sans&quot;, sans-serif; font-size: 14px; font-weight: normal; fill: transparent;">*</text></svg><svg x="159.21533203125" y="74.48245304188833" width="134.89091589095744" height="174.189006399601"><path d="M4,22L52.94545794547872,22Q62.94545794547872,22,62.94545794547872,32L62.94545794547872,138.189006399601Q62.94545794547872,148.189006399601,72.94545794547872,148.189006399601L121.89091589095744,148.189006399601L72.94545794547872,148.189006399601Q62.94545794547872,148.189006399601,62.94545794547872,138.189006399601L62.94545794547872,32Q62.94545794547872,22,52.94545794547872,22L4,22L4,22M4,18L14,22L4,26M111.89091589095744,144.189006399601L111.89091589095744,152.189006399601" fill="none" stroke="#D3D3D3" stroke-width="1"></path><text x="7" y="19" style="font-family: &quot;Open Sans&quot;, sans-serif; font-size: 14px; font-weight: normal; fill: transparent;">*</text><text x="110.88603307845744" y="145.189006399601" style="font-family: &quot;Open Sans&quot;, sans-serif; font-size: 14px; font-weight: normal; fill: transparent;">1</text></svg><svg x="159.21533203125" y="27.5" width="118.69576961436161" height="127.98245304188833"><path d="M4,101.98245304188833L44.847884807180805,101.98245304188833Q54.847884807180805,101.98245304188833,54.847884807180805,91.98245304188833L54.847884807180805,32Q54.847884807180805,22,64.8478848071808,22L105.69576961436161,22L64.8478848071808,22Q54.847884807180805,22,54.847884807180805,32L54.847884807180805,91.98245304188833Q54.847884807180805,101.98245304188833,44.847884807180805,101.98245304188833L4,101.98245304188833L4,101.98245304188833M4,97.98245304188833L14,101.98245304188833L4,105.98245304188833M95.69576961436161,18L95.69576961436161,26" fill="none" stroke="#D3D3D3" stroke-width="1"></path><text x="7" y="98.98245304188833" style="font-family: &quot;Open Sans&quot;, sans-serif; font-size: 14px; font-weight: normal; fill: transparent;">*</text><text x="94.69088680186161" y="19" style="font-family: &quot;Open Sans&quot;, sans-serif; font-size: 14px; font-weight: normal; fill: transparent;">1</text></svg><svg x="159.21533203125" y="27.5" width="118.69576961436161" height="160.98245304188833"><path d="M4,134.98245304188833L44.847884807180805,134.98245304188833Q54.847884807180805,134.98245304188833,54.847884807180805,124.98245304188833L54.847884807180805,32Q54.847884807180805,22,64.8478848071808,22L105.69576961436161,22L64.8478848071808,22Q54.847884807180805,22,54.847884807180805,32L54.847884807180805,124.98245304188833Q54.847884807180805,134.98245304188833,44.847884807180805,134.98245304188833L4,134.98245304188833L4,134.98245304188833M4,130.98245304188833L14,134.98245304188833L4,138.98245304188833M95.69576961436161,18L95.69576961436161,26" fill="none" stroke="#D3D3D3" stroke-width="1"></path><text x="7" y="131.98245304188833" style="font-family: &quot;Open Sans&quot;, sans-serif; font-size: 14px; font-weight: normal; fill: transparent;">*</text><text x="94.69088680186161" y="19" style="font-family: &quot;Open Sans&quot;, sans-serif; font-size: 14px; font-weight: normal; fill: transparent;">1</text></svg><svg x="264.9111016456116" y="0"><rect x="0" y="0" width="216.67529296875" height="33" fill="#316896"></rect><text x="10" y="19.75" style="font-family: &quot;Open Sans&quot;, sans-serif; font-size: 13px; font-weight: bold; fill: rgb(255, 255, 255);">users</text></svg><svg x="264.9111016456116" y="33"><rect x="0" y="0" width="216.67529296875" height="33" fill="#F2F2F2"></rect><text x="10" y="19.75" style="font-family: &quot;Open Sans&quot;, sans-serif; font-size: 13px; font-weight: bold; fill: black;">id</text><text x="188.52099609375" y="19.75" style="font-family: &quot;Open Sans&quot;, sans-serif; font-size: 13px; font-weight: bold; fill: black;">int</text></svg><svg x="264.9111016456116" y="66"><rect x="0" y="0" width="216.67529296875" height="33" fill="#F2F2F2"></rect><text x="10" y="19.75" style="font-family: &quot;Open Sans&quot;, sans-serif; font-size: 13px; fill: rgb(111, 111, 111);">username</text><text x="130.94140625" y="19.75" style="font-family: &quot;Open Sans&quot;, sans-serif; font-size: 13px; fill: rgb(111, 111, 111);">varchar(255)</text></svg><svg x="264.9111016456116" y="99"><rect x="0" y="0" width="216.67529296875" height="33" fill="#F2F2F2"></rect><text x="10" y="19.75" style="font-family: &quot;Open Sans&quot;, sans-serif; font-size: 13px; fill: rgb(111, 111, 111);">email</text><text x="130.94140625" y="19.75" style="font-family: &quot;Open Sans&quot;, sans-serif; font-size: 13px; fill: rgb(111, 111, 111);">varchar(255)</text></svg><svg x="281.10624792220744" y="173.17145944148933"><rect x="0" y="0" width="188.08544921875" height="33" fill="#316896"></rect><text x="10" y="19.75" style="font-family: &quot;Open Sans&quot;, sans-serif; font-size: 13px; font-weight: bold; fill: rgb(255, 255, 255);">lists</text></svg><svg x="281.10624792220744" y="206.17145944148933"><rect x="0" y="0" width="188.08544921875" height="33" fill="#F2F2F2"></rect><text x="10" y="19.75" style="font-family: &quot;Open Sans&quot;, sans-serif; font-size: 13px; font-weight: bold; fill: black;">id</text><text x="159.93115234375" y="19.75" style="font-family: &quot;Open Sans&quot;, sans-serif; font-size: 13px; font-weight: bold; fill: black;">int</text></svg><svg x="281.10624792220744" y="239.17145944148933"><rect x="0" y="0" width="188.08544921875" height="33" fill="#F2F2F2"></rect><text x="10" y="19.75" style="font-family: &quot;Open Sans&quot;, sans-serif; font-size: 13px; fill: rgb(111, 111, 111);">owner_id</text><text x="162.197265625" y="19.75" style="font-family: &quot;Open Sans&quot;, sans-serif; font-size: 13px; fill: rgb(111, 111, 111);">int</text></svg><svg x="281.10624792220744" y="272.17145944148933"><rect x="0" y="0" width="188.08544921875" height="33" fill="#F2F2F2"></rect><text x="10" y="19.75" style="font-family: &quot;Open Sans&quot;, sans-serif; font-size: 13px; fill: rgb(111, 111, 111);">name</text><text x="102.3515625" y="19.75" style="font-family: &quot;Open Sans&quot;, sans-serif; font-size: 13px; fill: rgb(111, 111, 111);">varchar(255)</text></svg><svg x="542.778902094415" y="9.277042470079891"><rect x="0" y="0" width="190.4912109375" height="33" fill="#316896"></rect><text x="10" y="19.75" style="font-family: &quot;Open Sans&quot;, sans-serif; font-size: 13px; font-weight: bold; fill: rgb(255, 255, 255);">items</text></svg><svg x="542.778902094415" y="42.27704247007989"><rect x="0" y="0" width="190.4912109375" height="33" fill="#F2F2F2"></rect><text x="10" y="19.75" style="font-family: &quot;Open Sans&quot;, sans-serif; font-size: 13px; font-weight: bold; fill: black;">id</text><text x="162.3369140625" y="19.75" style="font-family: &quot;Open Sans&quot;, sans-serif; font-size: 13px; font-weight: bold; fill: black;">int</text></svg><svg x="542.778902094415" y="75.27704247007989"><rect x="0" y="0" width="190.4912109375" height="33" fill="#F2F2F2"></rect><text x="10" y="19.75" style="font-family: &quot;Open Sans&quot;, sans-serif; font-size: 13px; fill: rgb(111, 111, 111);">list_id</text><text x="164.60302734375" y="19.75" style="font-family: &quot;Open Sans&quot;, sans-serif; font-size: 13px; fill: rgb(111, 111, 111);">int</text></svg><svg x="542.778902094415" y="108.27704247007989"><rect x="0" y="0" width="190.4912109375" height="33" fill="#F2F2F2"></rect><text x="10" y="19.75" style="font-family: &quot;Open Sans&quot;, sans-serif; font-size: 13px; fill: rgb(111, 111, 111);">name</text><text x="104.75732421875" y="19.75" style="font-family: &quot;Open Sans&quot;, sans-serif; font-size: 13px; fill: rgb(111, 111, 111);">varchar(255)</text></svg><svg x="542.778902094415" y="141.2770424700799"><rect x="0" y="0" width="190.4912109375" height="33" fill="#F2F2F2"></rect><text x="10" y="19.75" style="font-family: &quot;Open Sans&quot;, sans-serif; font-size: 13px; fill: rgb(111, 111, 111);">purchased</text><text x="131.119140625" y="19.75" style="font-family: &quot;Open Sans&quot;, sans-serif; font-size: 13px; fill: rgb(111, 111, 111);">boolean</text></svg><svg x="542.778902094415" y="174.2770424700799"><rect x="0" y="0" width="190.4912109375" height="33" fill="#F2F2F2"></rect><text x="10" y="19.75" style="font-family: &quot;Open Sans&quot;, sans-serif; font-size: 13px; fill: rgb(111, 111, 111);">quantity</text><text x="164.60302734375" y="19.75" style="font-family: &quot;Open Sans&quot;, sans-serif; font-size: 13px; fill: rgb(111, 111, 111);">int</text></svg><svg x="542.778902094415" y="207.2770424700799"><rect x="0" y="0" width="190.4912109375" height="33" fill="#F2F2F2"></rect><text x="10" y="19.75" style="font-family: &quot;Open Sans&quot;, sans-serif; font-size: 13px; fill: rgb(111, 111, 111);">units_id</text><text x="164.60302734375" y="19.75" style="font-family: &quot;Open Sans&quot;, sans-serif; font-size: 13px; fill: rgb(111, 111, 111);">int</text></svg><svg x="547.7719414893614" y="262.8495366522607"><rect x="0" y="0" width="180.18896484375" height="33" fill="#316896"></rect><text x="10" y="19.75" style="font-family: &quot;Open Sans&quot;, sans-serif; font-size: 13px; font-weight: bold; fill: rgb(255, 255, 255);">units</text></svg><svg x="547.7719414893614" y="295.8495366522607"><rect x="0" y="0" width="180.18896484375" height="33" fill="#F2F2F2"></rect><text x="10" y="19.75" style="font-family: &quot;Open Sans&quot;, sans-serif; font-size: 13px; font-weight: bold; fill: black;">id</text><text x="152.03466796875" y="19.75" style="font-family: &quot;Open Sans&quot;, sans-serif; font-size: 13px; font-weight: bold; fill: black;">int</text></svg><svg x="547.7719414893614" y="328.8495366522607"><rect x="0" y="0" width="180.18896484375" height="33" fill="#F2F2F2"></rect><text x="10" y="19.75" style="font-family: &quot;Open Sans&quot;, sans-serif; font-size: 13px; fill: rgb(111, 111, 111);">type</text><text x="94.455078125" y="19.75" style="font-family: &quot;Open Sans&quot;, sans-serif; font-size: 13px; fill: rgb(111, 111, 111);">varchar(255)</text></svg><svg x="0" y="13.982453041888334"><rect x="0" y="0" width="163.21533203125" height="33" fill="#316896"></rect><text x="10" y="19.75" style="font-family: &quot;Open Sans&quot;, sans-serif; font-size: 13px; font-weight: bold; fill: rgb(255, 255, 255);">collaborations</text></svg><svg x="0" y="46.982453041888334"><rect x="0" y="0" width="163.21533203125" height="33" fill="#F2F2F2"></rect><text x="10" y="19.75" style="font-family: &quot;Open Sans&quot;, sans-serif; font-size: 13px; font-weight: bold; fill: black;">id</text><text x="135.06103515625" y="19.75" style="font-family: &quot;Open Sans&quot;, sans-serif; font-size: 13px; font-weight: bold; fill: black;">int</text></svg><svg x="0" y="79.98245304188833"><rect x="0" y="0" width="163.21533203125" height="33" fill="#F2F2F2"></rect><text x="10" y="19.75" style="font-family: &quot;Open Sans&quot;, sans-serif; font-size: 13px; fill: rgb(111, 111, 111);">list_id</text><text x="137.3271484375" y="19.75" style="font-family: &quot;Open Sans&quot;, sans-serif; font-size: 13px; fill: rgb(111, 111, 111);">int</text></svg><svg x="0" y="112.98245304188833"><rect x="0" y="0" width="163.21533203125" height="33" fill="#F2F2F2"></rect><text x="10" y="19.75" style="font-family: &quot;Open Sans&quot;, sans-serif; font-size: 13px; fill: rgb(111, 111, 111);">inviter_id</text><text x="137.3271484375" y="19.75" style="font-family: &quot;Open Sans&quot;, sans-serif; font-size: 13px; fill: rgb(111, 111, 111);">int</text></svg><svg x="0" y="145.98245304188833"><rect x="0" y="0" width="163.21533203125" height="33" fill="#F2F2F2"></rect><text x="10" y="19.75" style="font-family: &quot;Open Sans&quot;, sans-serif; font-size: 13px; fill: rgb(111, 111, 111);">invitee_id</text><text x="137.3271484375" y="19.75" style="font-family: &quot;Open Sans&quot;, sans-serif; font-size: 13px; fill: rgb(111, 111, 111);">int</text></svg></svg>